<svg width="449" height="70" viewBox="0 0 449 70" fill="none" xmlns="http://www.w3.org/2000/svg">
<path d="M70.04 23.2H56.72V16H91.64V23.2H78.32V58H70.04V23.2ZM101.927 58C100.207 58 98.8067 57.48 97.7267 56.44C96.6467 55.4 96.1067 54.04 96.1067 52.36V16H128.147V23.2H104.387V32.92H126.347V40.12H104.387V50.8H128.147V58H101.927ZM147.711 58.48C144.631 58.48 141.911 57.82 139.551 56.5C137.231 55.18 135.431 53.32 134.151 50.92C132.871 48.48 132.231 45.68 132.231 42.52V31.48C132.231 28.32 132.871 25.54 134.151 23.14C135.471 20.7 137.311 18.82 139.671 17.5C142.071 16.18 144.831 15.52 147.951 15.52H154.311C157.311 15.52 159.951 16.16 162.231 17.44C164.511 18.72 166.271 20.52 167.511 22.84C168.791 25.12 169.431 27.78 169.431 30.82H161.271C161.271 28.42 160.631 26.5 159.351 25.06C158.071 23.58 156.391 22.84 154.311 22.84H147.951C145.711 22.84 143.911 23.68 142.551 25.36C141.191 27 140.511 29.16 140.511 31.84V42.16C140.511 44.84 141.171 47.02 142.491 48.7C143.811 50.34 145.551 51.16 147.711 51.16H154.191C156.311 51.16 158.031 50.34 159.351 48.7C160.711 47.06 161.391 44.9 161.391 42.22H169.551C169.551 45.46 168.911 48.32 167.631 50.8C166.351 53.24 164.551 55.14 162.231 56.5C159.911 57.82 157.231 58.48 154.191 58.48H147.711ZM174.74 16H183.02V33.34H202.58V16H210.86V58H202.58V40.54H183.02V58H174.74V16ZM218.275 16H225.655L245.815 44.56V16H253.915V58H246.535L226.375 29.44V58H218.275V16ZM276.161 58.48C273.001 58.48 270.201 57.82 267.761 56.5C265.361 55.14 263.481 53.26 262.121 50.86C260.801 48.42 260.141 45.6 260.141 42.4V31.6C260.141 28.4 260.801 25.6 262.121 23.2C263.481 20.76 265.361 18.88 267.761 17.56C270.201 16.2 273.001 15.52 276.161 15.52H282.521C285.681 15.52 288.461 16.2 290.861 17.56C293.301 18.88 295.181 20.76 296.501 23.2C297.861 25.6 298.541 28.4 298.541 31.6V42.4C298.541 45.6 297.861 48.42 296.501 50.86C295.181 53.26 293.301 55.14 290.861 56.5C288.461 57.82 285.681 58.48 282.521 58.48H276.161ZM282.521 51.16C284.841 51.16 286.701 50.32 288.101 48.64C289.541 46.96 290.261 44.76 290.261 42.04V31.96C290.261 29.24 289.541 27.04 288.101 25.36C286.701 23.68 284.841 22.84 282.521 22.84H276.161C273.841 22.84 271.961 23.68 270.521 25.36C269.121 27.04 268.421 29.24 268.421 31.96V42.04C268.421 44.76 269.121 46.96 270.521 48.64C271.961 50.32 273.841 51.16 276.161 51.16H282.521Z" fill="#323333"/>
<path d="M304.759 16H312.139L332.299 44.56V16H340.399V58H333.019L312.859 29.44V58H304.759V16ZM353.645 58C351.925 58 350.525 57.48 349.445 56.44C348.365 55.4 347.825 54.04 347.825 52.36V16H379.865V23.2H356.105V32.92H378.065V40.12H356.105V50.8H379.865V58H353.645Z" fill="#F04E2B"/>
<path d="M383.719 58.0002L409.188 23.6133L419.155 36.7633L403.364 58.0002H383.719Z" fill="#F04E2B"/>
<path d="M399.36 36.7632L383.719 16H403.651L409.188 23.6132L399.36 36.7632Z" fill="#323333"/>
<path d="M427.04 23.2H413.72V16H448.64V23.2H435.32V58H427.04V23.2Z" fill="#F04E2B"/>
<circle cx="4.53824" cy="7.09292" r="2.09292" fill="#323333"/>
<circle cx="10.1164" cy="12.673" r="2.09292" fill="#323333"/>
<circle cx="15.7023" cy="18.255" r="2.09292" fill="#323333"/>
<circle cx="21.632" cy="23.8371" r="2.09292" fill="#323333"/>
<circle cx="27.2101" cy="29.4152" r="2.09292" fill="#323333"/>
<circle cx="10.1164" cy="7.09292" r="2.09292" fill="#323333"/>
<circle cx="15.7023" cy="12.673" r="2.09292" fill="#323333"/>
<circle cx="21.2804" cy="18.255" r="2.09292" fill="#323333"/>
<circle cx="27.2101" cy="23.8371" r="2.09292" fill="#323333"/>
<circle cx="32.796" cy="29.4152" r="2.09292" fill="#323333"/>
<circle cx="16.046" cy="7.09292" r="2.09292" fill="#323333"/>
<circle cx="21.632" cy="12.673" r="2.09292" fill="#323333"/>
<circle cx="27.2101" cy="18.255" r="2.09292" fill="#323333"/>
<circle cx="33.1398" cy="23.8371" r="2.09292" fill="#323333"/>
<circle cx="21.632" cy="7.09292" r="2.09292" fill="#323333"/>
<circle cx="27.2101" cy="12.673" r="2.09292" fill="#323333"/>
<circle cx="32.796" cy="18.255" r="2.09292" fill="#323333"/>
<circle cx="38.7257" cy="23.8371" r="2.09292" fill="#323333"/>
<circle cx="27.2101" cy="7.09292" r="2.09292" fill="#323333"/>
<circle cx="32.796" cy="12.673" r="2.09292" fill="#323333"/>
<circle cx="38.3742" cy="18.255" r="2.09292" fill="#323333"/>
<path d="M0 65.0009H27.9057C33.8937 59.0467 46.8815 46.0525 50.9278 41.7094C55.9857 36.2805 53.1952 30.3263 52.4975 29.4507C51.9394 28.7502 42.7305 19.3518 38.1959 14.7402C40.8469 21.3249 39.3005 25.5396 38.1959 26.8238L0 65.0009Z" fill="url(#paint0_linear_1609_4809)"/>
<defs>
<linearGradient id="paint0_linear_1609_4809" x1="26.947" y1="14.7402" x2="26.947" y2="65.0009" gradientUnits="userSpaceOnUse">
<stop stop-color="#FFA800"/>
<stop offset="1" stop-color="#FF0344"/>
</linearGradient>
</defs>
</svg>
